<svg width="24" height="24" viewBox="0 0 24 24" fill="none" xmlns="http://www.w3.org/2000/svg">
<path d="M22 11.9998C22 17.5226 17.5228 21.9998 12 21.9998C6.47715 21.9998 2 17.5226 2 11.9998C2 6.47691 6.47715 1.99976 12 1.99976C17.5228 1.99976 22 6.47691 22 11.9998ZM5.5 11.9998C5.5 15.5896 8.41015 18.4998 12 18.4998C15.5898 18.4998 18.5 15.5896 18.5 11.9998C18.5 8.4099 15.5898 5.49976 12 5.49976C8.41015 5.49976 5.5 8.4099 5.5 11.9998Z" fill="url(#paint0_angular_16_461)"/>
<path d="M12 1.99982C13.3132 1.99982 14.6136 2.25848 15.8268 2.76102C17.0401 3.26357 18.1425 4.00017 19.0711 4.92875C19.9997 5.85734 20.7362 6.95973 21.2388 8.17298C21.7413 9.38624 22 10.6866 22 11.9998L18.5 11.9998C18.5 11.1462 18.3319 10.301 18.0052 9.51238C17.6786 8.72376 17.1998 8.0072 16.5962 7.40362C15.9926 6.80004 15.2761 6.32126 14.4874 5.9946C13.6988 5.66795 12.8536 5.49982 12 5.49982L12 1.99982Z" fill="url(#paint1_angular_16_461)"/>
<defs>
<radialGradient id="paint0_angular_16_461" cx="0" cy="0" r="1" gradientUnits="userSpaceOnUse" gradientTransform="translate(12 11.9998) scale(10)">
<stop offset="0.9999" stop-color="#A0A0A0"/>
<stop offset="1" stop-color="white" stop-opacity="0.01"/>
</radialGradient>
<radialGradient id="paint1_angular_16_461" cx="0" cy="0" r="1" gradientUnits="userSpaceOnUse" gradientTransform="translate(12 11.9998) rotate(-90) scale(10)">
<stop offset="0.9999" stop-color="#A0A0A0"/>
<stop offset="1" stop-color="#A0A0A0" stop-opacity="0.01"/>
</radialGradient>
</defs>
</svg>
